<svg width="36" height="34" viewBox="0 0 36 34" fill="none" xmlns="http://www.w3.org/2000/svg">
<path d="M6.21152 14.3347L8.63442 15.9341C8.9469 16.139 9.33148 15.8341 9.24014 15.4593L8.53827 12.5905C8.51929 12.5109 8.52231 12.4275 8.54698 12.3496C8.57164 12.2718 8.61695 12.2028 8.67768 12.1506L10.8506 10.2664C11.1342 10.0215 10.99 9.5267 10.6198 9.50171L7.78352 9.31179C7.70613 9.30711 7.63173 9.27909 7.56941 9.23116C7.50708 9.18323 7.45954 9.11746 7.43259 9.0419L6.37497 6.27303C6.34698 6.19301 6.29598 6.12389 6.22889 6.07504C6.16181 6.0262 6.0819 6 6 6C5.9181 6 5.83819 6.0262 5.77111 6.07504C5.70402 6.12389 5.65302 6.19301 5.62503 6.27303L4.56741 9.0419C4.54046 9.11746 4.49292 9.18323 4.43059 9.23116C4.36827 9.27909 4.29387 9.30711 4.21648 9.31179L1.38015 9.50171C1.00999 9.5267 0.865768 10.0215 1.1494 10.2664L3.32232 12.1506C3.38305 12.2028 3.42836 12.2718 3.45302 12.3496C3.47769 12.4275 3.48071 12.5109 3.46173 12.5905L2.81274 15.2494C2.70217 15.6992 3.16367 16.064 3.53384 15.8191L5.78848 14.3347C5.8517 14.2929 5.92508 14.2707 6 14.2707C6.07492 14.2707 6.1483 14.2929 6.21152 14.3347V14.3347Z" stroke="#30A7D7" stroke-linecap="round" stroke-linejoin="round"/>
<path d="M19.2115 9.33474L21.6344 10.9341C21.9469 11.139 22.3315 10.8341 22.2401 10.4593L21.5383 7.59045C21.5193 7.51093 21.5223 7.42745 21.547 7.34964C21.5716 7.27183 21.617 7.20284 21.6777 7.15063L23.8506 5.2664C24.1342 5.0215 23.99 4.5267 23.6198 4.50171L20.7835 4.31179C20.7061 4.30711 20.6317 4.27909 20.5694 4.23116C20.5071 4.18323 20.4595 4.11746 20.4326 4.0419L19.375 1.27303C19.347 1.19301 19.296 1.12389 19.2289 1.07504C19.1618 1.0262 19.0819 1 19 1C18.9181 1 18.8382 1.0262 18.7711 1.07504C18.704 1.12389 18.653 1.19301 18.625 1.27303L17.5674 4.0419C17.5405 4.11746 17.4929 4.18323 17.4306 4.23116C17.3683 4.27909 17.2939 4.30711 17.2165 4.31179L14.3802 4.50171C14.01 4.5267 13.8658 5.0215 14.1494 5.2664L16.3223 7.15063C16.383 7.20284 16.4284 7.27183 16.453 7.34964C16.4777 7.42745 16.4807 7.51093 16.4617 7.59045L15.8127 10.2494C15.7022 10.6992 16.1637 11.064 16.5338 10.8191L18.7885 9.33474C18.8517 9.29294 18.9251 9.27074 19 9.27074C19.0749 9.27074 19.1483 9.29294 19.2115 9.33474V9.33474Z" stroke="#30A7D7" stroke-linecap="round" stroke-linejoin="round"/>
<path d="M30.2115 15.3347L32.6344 16.9341C32.9469 17.139 33.3315 16.8341 33.2401 16.4593L32.5383 13.5905C32.5193 13.5109 32.5223 13.4275 32.547 13.3496C32.5716 13.2718 32.617 13.2028 32.6777 13.1506L34.8506 11.2664C35.1342 11.0215 34.99 10.5267 34.6198 10.5017L31.7835 10.3118C31.7061 10.3071 31.6317 10.2791 31.5694 10.2312C31.5071 10.1832 31.4595 10.1175 31.4326 10.0419L30.375 7.27303C30.347 7.19301 30.296 7.12389 30.2289 7.07504C30.1618 7.0262 30.0819 7 30 7C29.9181 7 29.8382 7.0262 29.7711 7.07504C29.704 7.12389 29.653 7.19301 29.625 7.27303L28.5674 10.0419C28.5405 10.1175 28.4929 10.1832 28.4306 10.2312C28.3683 10.2791 28.2939 10.3071 28.2165 10.3118L25.3802 10.5017C25.01 10.5267 24.8658 11.0215 25.1494 11.2664L27.3223 13.1506C27.383 13.2028 27.4284 13.2718 27.453 13.3496C27.4777 13.4275 27.4807 13.5109 27.4617 13.5905L26.8127 16.2494C26.7022 16.6992 27.1637 17.064 27.5338 16.8191L29.7885 15.3347C29.8517 15.2929 29.9251 15.2707 30 15.2707C30.0749 15.2707 30.1483 15.2929 30.2115 15.3347V15.3347Z" stroke="#30A7D7" stroke-linecap="round" stroke-linejoin="round"/>
<path d="M20.1446 22.6111H24.9711C26.4774 22.6111 27.4571 24.0888 26.7835 25.3447L23.2375 31.9558C22.8942 32.5958 22.1926 33 21.4251 33H17.3546C17.1889 33 17.0239 32.9811 16.8631 32.9436L13.0526 32.0556M20.1446 22.6111V17.8889C20.1446 16.8457 19.2374 16 18.1183 16H18.0215C17.5154 16 17.1051 16.3825 17.1051 16.8543C17.1051 17.5289 16.8909 18.1884 16.4895 18.7497L13.0526 23.5556V32.0556M20.1446 22.6111H18.1183M13.0526 32.0556H11.0263C9.9072 32.0556 9 31.2099 9 30.1667V24.5C9 23.4568 9.9072 22.6111 11.0263 22.6111H13.5591" stroke="#30A7D7" stroke-linecap="round" stroke-linejoin="round"/>
</svg>
