<svg width="8" height="17" viewBox="0 0 8 17" fill="none" xmlns="http://www.w3.org/2000/svg">
<path d="M5.17286 5.50729V4.24229C5.15969 4.1445 5.16839 4.045 5.19827 3.95097C5.22816 3.85693 5.27852 3.77068 5.34572 3.69844C5.41293 3.62619 5.49526 3.56974 5.5869 3.53314C5.67853 3.49654 5.7772 3.48072 5.87568 3.48679H7.63264V0.772302H5.18165C4.73659 0.735333 4.28883 0.79548 3.8693 0.948592C3.44976 1.1017 3.06852 1.34412 2.7519 1.65908C2.43527 1.97403 2.19078 2.35401 2.03545 2.77273C1.88012 3.19145 1.81757 3.6389 1.85219 4.08416V5.51607H0.279785V8.68738H1.86977V16.5937H5.03227V8.68738H7.37784L7.49205 7.43994L7.6677 5.51607L5.17286 5.50729Z" fill="#A8ADB9"/>
</svg>
