<svg width="16" height="15" viewBox="0 0 16 15" fill="none" xmlns="http://www.w3.org/2000/svg">
<path d="M12.4921 0H3.25048C2.47929 0 1.73975 0.302258 1.19444 0.840273C0.649131 1.37829 0.342773 2.10799 0.342773 2.86886V11.9868C0.345091 12.7469 0.652206 13.4753 1.19702 14.0128C1.74182 14.5504 2.48 14.8534 3.25048 14.8556H12.4921C13.2633 14.8556 14.0029 14.5534 14.5482 14.0154C15.0935 13.4774 15.3999 12.7476 15.3999 11.9868V2.86886C15.3999 2.10799 15.0935 1.37829 14.5482 0.840273C14.0029 0.302258 13.2633 0 12.4921 0V0ZM13.3706 1.73345H13.7044V4.25561H11.1568V1.74212L13.3706 1.73345ZM5.76302 5.92839C6.00641 5.58857 6.32885 5.31135 6.70337 5.12001C7.07788 4.92867 7.49349 4.8288 7.91524 4.8288C8.33699 4.8288 8.7526 4.92867 9.12712 5.12001C9.50163 5.31135 9.82407 5.58857 10.0675 5.92839L10.2256 6.17974C10.4523 6.56696 10.5706 7.00667 10.5683 7.45382C10.5596 7.84621 10.4611 8.23157 10.28 8.58102C10.0989 8.93048 9.83994 9.23495 9.5226 9.47162C9.20527 9.70829 8.83782 9.87102 8.44767 9.9476C8.05752 10.0242 7.65477 10.0126 7.26979 9.91379C6.88481 9.81497 6.52752 9.63145 6.22467 9.37698C5.92181 9.12251 5.68128 8.80369 5.52109 8.44445C5.3609 8.0852 5.28526 7.69483 5.29976 7.30262C5.31426 6.91041 5.41855 6.52652 5.60484 6.17974L5.76302 5.92839ZM13.9768 11.9954C13.9768 12.3724 13.825 12.734 13.5548 13.0005C13.2846 13.2671 12.9181 13.4169 12.536 13.4169H3.29444C2.91306 13.4146 2.54796 13.2641 2.27828 12.998C2.00859 12.732 1.85603 12.3717 1.85373 11.9954V5.92839H4.10268C4.04514 6.06423 3.99524 6.20312 3.9533 6.34442C3.85097 6.70567 3.79774 7.07874 3.79513 7.45382C3.79513 8.53191 4.2293 9.56584 5.00196 10.3282C5.77462 11.0905 6.82254 11.5187 7.91524 11.5187C9.00795 11.5187 10.0559 11.0905 10.8285 10.3282C11.6012 9.56584 12.0352 8.53191 12.0352 7.45382C12.0326 7.07874 11.9795 6.70567 11.8772 6.34442C11.8352 6.20312 11.7853 6.06423 11.7278 5.92839H13.9768V11.9954V11.9954Z" fill="white"/>
</svg>
