<svg width="16" height="15" viewBox="0 0 16 15" fill="none" xmlns="http://www.w3.org/2000/svg">
<path d="M12.6166 0.0498047H3.37499C2.6038 0.0498047 1.86426 0.352063 1.31895 0.890077C0.773643 1.42809 0.467285 2.1578 0.467285 2.91866V12.0366C0.469602 12.7967 0.776718 13.5251 1.32153 14.0626C1.86634 14.6002 2.60452 14.9032 3.37499 14.9054H12.6166C13.3878 14.9054 14.1274 14.6032 14.6727 14.0652C15.218 13.5272 15.5244 12.7975 15.5244 12.0366V2.91866C15.5244 2.1578 15.218 1.42809 14.6727 0.890077C14.1274 0.352063 13.3878 0.0498047 12.6166 0.0498047V0.0498047ZM13.4951 1.78325H13.8289V4.30542H11.2813V1.79192L13.4951 1.78325ZM5.88753 5.97819C6.13092 5.63837 6.45336 5.36115 6.82788 5.16981C7.2024 4.97847 7.61801 4.87861 8.03975 4.87861C8.4615 4.87861 8.87711 4.97847 9.25163 5.16981C9.62614 5.36115 9.94859 5.63837 10.192 5.97819L10.3502 6.22954C10.5768 6.61677 10.6951 7.05648 10.6928 7.50363C10.6841 7.89601 10.5856 8.28137 10.4045 8.63083C10.2234 8.98028 9.96445 9.28476 9.64711 9.52143C9.32978 9.7581 8.96233 9.92082 8.57218 9.9974C8.18203 10.074 7.77928 10.0624 7.3943 9.9636C7.00932 9.86477 6.65203 9.68125 6.34918 9.42678C6.04633 9.17231 5.80579 8.8535 5.6456 8.49425C5.48542 8.135 5.40977 7.74464 5.42427 7.35242C5.43877 6.96021 5.54307 6.57632 5.72936 6.22954L5.88753 5.97819ZM14.1013 12.0453C14.1013 12.4222 13.9495 12.7838 13.6793 13.0504C13.4091 13.3169 13.0427 13.4667 12.6606 13.4667H3.41896C3.03757 13.4644 2.67247 13.3139 2.40279 13.0478C2.1331 12.7818 1.98054 12.4215 1.97824 12.0453V5.97819H4.22719C4.16965 6.11404 4.11975 6.25293 4.07781 6.39422C3.97548 6.75547 3.92226 7.12854 3.91964 7.50363C3.91964 8.58171 4.35381 9.61564 5.12647 10.378C5.89914 11.1403 6.94705 11.5686 8.03975 11.5686C9.13246 11.5686 10.1804 11.1403 10.953 10.378C11.7257 9.61564 12.1598 8.58171 12.1598 7.50363C12.1571 7.12854 12.104 6.75547 12.0017 6.39422C11.9598 6.25293 11.9099 6.11404 11.8523 5.97819H14.1013V12.0453V12.0453Z" fill="#A8ADB9"/>
</svg>
