<svg width="31" height="30" viewBox="0 0 31 30" fill="none" xmlns="http://www.w3.org/2000/svg">
<path d="M30.167 15C30.167 12.0333 29.2873 9.13318 27.639 6.66645C25.9908 4.19971 23.6481 2.27712 20.9072 1.14181C18.1664 0.0064925 15.1504 -0.290558 12.2406 0.288221C9.33092 0.866999 6.65818 2.29561 4.56039 4.3934C2.4626 6.49119 1.03399 9.16393 0.455213 12.0736C-0.123565 14.9834 0.173485 17.9994 1.3088 20.7403C2.44411 23.4811 4.3667 25.8238 6.83344 27.472C9.30018 29.1203 12.2003 30 15.167 30V26.053C12.9809 26.053 10.8439 25.4047 9.0263 24.1902C7.20865 22.9757 5.79197 21.2494 4.95539 19.2298C4.11882 17.2101 3.89994 14.9877 4.32642 12.8437C4.7529 10.6996 5.80559 8.73016 7.35137 7.18438C8.89716 5.6386 10.8666 4.58591 13.0107 4.15943C15.1547 3.73294 17.3771 3.95183 19.3968 4.7884C21.4164 5.62497 23.1427 7.04166 24.3572 8.85931C25.5717 10.677 26.2199 12.8139 26.2199 15H30.167Z" fill="#3C61C9"/>
<path d="M17.3354 29.8424C20.5719 29.3696 23.5651 27.8518 25.8592 25.5203C28.1532 23.1888 29.6223 20.1713 30.0426 16.9276L26.1283 16.4203C25.8186 18.8106 24.7361 21.034 23.0457 22.752C21.3553 24.47 19.1497 25.5884 16.7648 25.9369L17.3354 29.8424Z" fill="#E95B51"/>
</svg>
