<svg width="147" height="44" viewBox="0 0 147 44" fill="none"
    xmlns="http://www.w3.org/2000/svg">
    <path d="M36.6075 22C36.6075 18.4224 35.5466 14.9251 33.5589 11.9504C31.5713 8.97567 28.7462 6.65717 25.4409 5.28807C22.1356 3.91896 18.4985 3.56074 14.9896 4.25871C11.4807 4.95667 8.25758 6.67947 5.7278 9.20925C3.19802 11.739 1.47522 14.9622 0.77726 18.4711C0.0792967 21.98 0.437517 25.617 1.80662 28.9223C3.17573 32.2277 5.49423 35.0527 8.46893 37.0404C11.4436 39.028 14.9409 40.0889 18.5186 40.0889L18.5186 35.3291C15.8823 35.3291 13.3053 34.5473 11.1134 33.0827C8.92141 31.6181 7.21299 29.5364 6.20415 27.1008C5.1953 24.6653 4.93134 21.9852 5.44565 19.3997C5.95995 16.8141 7.22942 14.4391 9.09352 12.575C10.9576 10.7109 13.3326 9.4414 15.9182 8.92709C18.5038 8.41279 21.1838 8.67675 23.6194 9.68559C26.0549 10.6944 28.1367 12.4029 29.6013 14.5948C31.0659 16.7868 31.8476 19.3638 31.8476 22H36.6075Z" fill="#3C61C9"/>
    <path d="M21.1335 39.8989C25.0365 39.3287 28.6461 37.4984 31.4126 34.6867C34.179 31.8751 35.9506 28.2362 36.4575 24.3245L31.7371 23.7129C31.3636 26.5953 30.0582 29.2766 28.0197 31.3484C25.9812 33.4202 23.3214 34.7689 20.4454 35.1891L21.1335 39.8989Z" fill="#E95B51"/>
    <path d="M57.4808 16.2741L53.4991 23.8868V28.5H51.9029V23.8868L47.9036 16.2741H49.6752L52.6922 22.466L55.7092 16.2741H57.4808ZM64.7073 28.6228C63.573 28.6228 62.5381 28.3597 61.6026 27.8335C60.6671 27.2955 59.9246 26.553 59.375 25.6058C58.837 24.6469 58.5681 23.5711 58.5681 22.3783C58.5681 21.1855 58.837 20.1155 59.375 19.1683C59.9246 18.2094 60.6671 17.4669 61.6026 16.9407C62.5381 16.4027 63.573 16.1338 64.7073 16.1338C65.8533 16.1338 66.8941 16.4027 67.8296 16.9407C68.7651 17.4669 69.5018 18.2036 70.0397 19.1508C70.5776 20.098 70.8466 21.1738 70.8466 22.3783C70.8466 23.5827 70.5776 24.6586 70.0397 25.6058C69.5018 26.553 68.7651 27.2955 67.8296 27.8335C66.8941 28.3597 65.8533 28.6228 64.7073 28.6228ZM64.7073 27.2371C65.561 27.2371 66.3269 27.0383 67.0052 26.6407C67.6951 26.2431 68.233 25.6759 68.6189 24.9392C69.0165 24.2025 69.2153 23.3489 69.2153 22.3783C69.2153 21.396 69.0165 20.5423 68.6189 19.8173C68.233 19.0806 67.701 18.5135 67.0227 18.1159C66.3445 17.7183 65.5727 17.5195 64.7073 17.5195C63.842 17.5195 63.0702 17.7183 62.392 18.1159C61.7137 18.5135 61.1758 19.0806 60.7782 19.8173C60.3923 20.5423 60.1994 21.396 60.1994 22.3783C60.1994 23.3489 60.3923 24.2025 60.7782 24.9392C61.1758 25.6759 61.7137 26.2431 62.392 26.6407C63.0819 27.0383 63.8537 27.2371 64.7073 27.2371ZM74.5149 16.2741V24.0096C74.5149 25.0971 74.7781 25.904 75.3043 26.4302C75.8422 26.9564 76.5848 27.2195 77.532 27.2195C78.4675 27.2195 79.1983 26.9564 79.7245 26.4302C80.2625 25.904 80.5314 25.0971 80.5314 24.0096V16.2741H82.1276V23.992C82.1276 25.0094 81.923 25.8689 81.5137 26.5705C81.1044 27.2605 80.549 27.775 79.8473 28.1141C79.1574 28.4532 78.3798 28.6228 77.5144 28.6228C76.6491 28.6228 75.8656 28.4532 75.164 28.1141C74.474 27.775 73.9244 27.2605 73.5151 26.5705C73.1175 25.8689 72.9187 25.0094 72.9187 23.992V16.2741H74.5149ZM91.2278 28.5L88.3161 23.5009H86.3866V28.5H84.7904V16.2741H88.7371C89.6609 16.2741 90.4385 16.432 91.07 16.7477C91.7131 17.0634 92.1926 17.4903 92.5083 18.0282C92.8241 18.5661 92.9819 19.18 92.9819 19.87C92.9819 20.7119 92.7364 21.4545 92.2452 22.0976C91.7658 22.7408 91.0407 23.1676 90.0702 23.3781L93.1398 28.5H91.2278ZM86.3866 22.2204H88.7371C89.6024 22.2204 90.2514 22.0099 90.6841 21.5889C91.1168 21.1563 91.3331 20.5833 91.3331 19.87C91.3331 19.1449 91.1168 18.5836 90.6841 18.186C90.2631 17.7885 89.6141 17.5897 88.7371 17.5897H86.3866V22.2204ZM101.735 27.202H106.015V28.5H100.139V16.2741H101.735V27.202ZM113.253 28.6228C112.118 28.6228 111.084 28.3597 110.148 27.8335C109.212 27.2955 108.47 26.553 107.92 25.6058C107.382 24.6469 107.113 23.5711 107.113 22.3783C107.113 21.1855 107.382 20.1155 107.92 19.1683C108.47 18.2094 109.212 17.4669 110.148 16.9407C111.084 16.4027 112.118 16.1338 113.253 16.1338C114.399 16.1338 115.439 16.4027 116.375 16.9407C117.31 17.4669 118.047 18.2036 118.585 19.1508C119.123 20.098 119.392 21.1738 119.392 22.3783C119.392 23.5827 119.123 24.6586 118.585 25.6058C118.047 26.553 117.31 27.2955 116.375 27.8335C115.439 28.3597 114.399 28.6228 113.253 28.6228ZM113.253 27.2371C114.106 27.2371 114.872 27.0383 115.551 26.6407C116.24 26.2431 116.778 25.6759 117.164 24.9392C117.562 24.2025 117.761 23.3489 117.761 22.3783C117.761 21.396 117.562 20.5423 117.164 19.8173C116.778 19.0806 116.246 18.5135 115.568 18.1159C114.89 17.7183 114.118 17.5195 113.253 17.5195C112.387 17.5195 111.616 17.7183 110.937 18.1159C110.259 18.5135 109.721 19.0806 109.324 19.8173C108.938 20.5423 108.745 21.396 108.745 22.3783C108.745 23.3489 108.938 24.2025 109.324 24.9392C109.721 25.6759 110.259 26.2431 110.937 26.6407C111.627 27.0383 112.399 27.2371 113.253 27.2371ZM130.761 19.8173C130.422 19.104 129.93 18.5544 129.287 18.1685C128.644 17.7709 127.896 17.5721 127.042 17.5721C126.188 17.5721 125.417 17.7709 124.727 18.1685C124.048 18.5544 123.511 19.1157 123.113 19.8524C122.727 20.5774 122.534 21.4194 122.534 22.3783C122.534 23.3372 122.727 24.1791 123.113 24.9041C123.511 25.6292 124.048 26.1905 124.727 26.5881C125.417 26.974 126.188 27.1669 127.042 27.1669C128.235 27.1669 129.217 26.8102 129.989 26.0969C130.761 25.3836 131.211 24.4189 131.34 23.2027H126.463V21.9047H133.041V23.1325C132.947 24.1382 132.632 25.062 132.094 25.904C131.556 26.7342 130.848 27.3949 129.971 27.8861C129.094 28.3655 128.118 28.6052 127.042 28.6052C125.908 28.6052 124.873 28.3421 123.937 27.8159C123.002 27.278 122.259 26.5354 121.71 25.5882C121.172 24.641 120.903 23.5711 120.903 22.3783C120.903 21.1855 121.172 20.1155 121.71 19.1683C122.259 18.2094 123.002 17.4669 123.937 16.9407C124.873 16.4027 125.908 16.1338 127.042 16.1338C128.34 16.1338 129.486 16.4554 130.48 17.0985C131.486 17.7417 132.217 18.6479 132.673 19.8173H130.761ZM140.694 28.6228C139.56 28.6228 138.525 28.3597 137.59 27.8335C136.654 27.2955 135.912 26.553 135.362 25.6058C134.824 24.6469 134.555 23.5711 134.555 22.3783C134.555 21.1855 134.824 20.1155 135.362 19.1683C135.912 18.2094 136.654 17.4669 137.59 16.9407C138.525 16.4027 139.56 16.1338 140.694 16.1338C141.84 16.1338 142.881 16.4027 143.817 16.9407C144.752 17.4669 145.489 18.2036 146.027 19.1508C146.565 20.098 146.834 21.1738 146.834 22.3783C146.834 23.5827 146.565 24.6586 146.027 25.6058C145.489 26.553 144.752 27.2955 143.817 27.8335C142.881 28.3597 141.84 28.6228 140.694 28.6228ZM140.694 27.2371C141.548 27.2371 142.314 27.0383 142.992 26.6407C143.682 26.2431 144.22 25.6759 144.606 24.9392C145.004 24.2025 145.202 23.3489 145.202 22.3783C145.202 21.396 145.004 20.5423 144.606 19.8173C144.22 19.0806 143.688 18.5135 143.01 18.1159C142.332 17.7183 141.56 17.5195 140.694 17.5195C139.829 17.5195 139.057 17.7183 138.379 18.1159C137.701 18.5135 137.163 19.0806 136.765 19.8173C136.379 20.5423 136.186 21.396 136.186 22.3783C136.186 23.3489 136.379 24.2025 136.765 24.9392C137.163 25.6759 137.701 26.2431 138.379 26.6407C139.069 27.0383 139.841 27.2371 140.694 27.2371Z" fill="black"/>
</svg>
