<svg width="18" height="14" viewBox="0 0 18 14" fill="none" xmlns="http://www.w3.org/2000/svg">
<path d="M16.5066 2.24171H0.660262C0.299319 2.24171 0 1.86107 0 1.40207C0 0.943073 0.299319 0.562439 0.660262 0.562439H16.5066C16.8675 0.562439 17.1668 0.943073 17.1668 1.40207C17.1668 1.86107 16.8675 2.24171 16.5066 2.24171Z" fill="#404040"/>
<path d="M16.5066 7.84034H0.660262C0.299319 7.84034 0 7.45971 0 7.00071C0 6.54171 0.299319 6.16107 0.660262 6.16107H16.5066C16.8675 6.16107 17.1668 6.54171 17.1668 7.00071C17.1668 7.45971 16.8675 7.84034 16.5066 7.84034Z" fill="#404040"/>
<path d="M16.5066 13.4376H0.660262C0.299319 13.4376 0 13.0569 0 12.5979C0 12.1389 0.299319 11.7583 0.660262 11.7583H16.5066C16.8675 11.7583 17.1668 12.1389 17.1668 12.5979C17.1668 13.0569 16.8675 13.4376 16.5066 13.4376Z" fill="#404040"/>
</svg>
