<svg width="17" height="14" viewBox="0 0 17 14" fill="none" xmlns="http://www.w3.org/2000/svg">
<path d="M16.9473 1.9168C16.3167 2.19556 15.6471 2.37627 14.9619 2.45267C15.6801 2.0315 16.2204 1.36322 16.4818 0.572727C15.7999 0.966446 15.0579 1.24542 14.2856 1.3985C13.8111 0.900215 13.1993 0.55422 12.5278 0.404474C11.8562 0.254728 11.1553 0.307993 10.5141 0.5575C9.87289 0.807007 9.32034 1.24149 8.92666 1.80575C8.53297 2.37 8.31593 3.03856 8.30308 3.72646C8.3053 3.98651 8.33472 4.24561 8.39091 4.49952C7.021 4.43575 5.67958 4.08631 4.45266 3.47361C3.22575 2.86091 2.14047 1.99849 1.26647 0.941686C0.94995 1.47264 0.785785 2.08053 0.792056 2.69864C0.793955 3.26179 0.935357 3.8157 1.20363 4.31085C1.4719 4.806 1.85868 5.22697 2.32939 5.53612C1.78173 5.51654 1.24632 5.36913 0.765783 5.10567V5.14959C0.768359 5.94194 1.04692 6.70864 1.55354 7.31786C2.06016 7.92709 2.76311 8.34078 3.54169 8.48781C3.25524 8.56575 2.96006 8.60707 2.66322 8.61079C2.445 8.61253 2.22718 8.59193 2.01315 8.5493C2.23954 9.23035 2.67255 9.8239 3.25194 10.2474C3.83134 10.671 4.52837 10.9034 5.246 10.9124C4.01465 11.86 2.50398 12.3728 0.950229 12.3707C0.669116 12.3707 0.39684 12.3707 0.124512 12.3707C1.70193 13.3676 3.52935 13.8975 5.39538 13.8992C7.63358 13.9369 9.81538 13.1963 11.5682 11.8039C13.321 10.4116 14.5361 8.45393 15.0059 6.26526C15.1622 5.59119 15.2418 4.90159 15.2431 4.20962C15.2431 4.06028 15.2431 3.91094 15.2431 3.77038C15.9208 3.2631 16.4986 2.63463 16.9473 1.9168V1.9168Z" fill="#A8ADB9"/>
</svg>
