<svg width="17" height="14" viewBox="0 0 17 14" fill="none" xmlns="http://www.w3.org/2000/svg">
<path d="M16.8228 1.86699C16.1921 2.14575 15.5226 2.32647 14.8374 2.40286C15.5556 1.98169 16.0959 1.31341 16.3572 0.522923C15.6754 0.916642 14.9334 1.19562 14.1611 1.34869C13.6866 0.850411 13.0748 0.504416 12.4032 0.35467C11.7317 0.204924 11.0307 0.258188 10.3896 0.507695C9.74837 0.757203 9.19583 1.19169 8.80215 1.75594C8.40846 2.3202 8.19142 2.98876 8.17857 3.67666C8.18078 3.93671 8.21021 4.1958 8.2664 4.44972C6.89649 4.38595 5.55506 4.0365 4.32815 3.4238C3.10124 2.8111 2.01596 1.94868 1.14196 0.891882C0.825438 1.42284 0.661274 2.03073 0.667544 2.64884C0.669443 3.21199 0.810845 3.7659 1.07912 4.26105C1.34739 4.7562 1.73417 5.17717 2.20488 5.48632C1.65721 5.46673 1.1218 5.31932 0.641271 5.05587V5.09979C0.643847 5.89213 0.922408 6.65883 1.42903 7.26806C1.93565 7.87728 2.63859 8.29097 3.41718 8.438C3.13073 8.51594 2.83555 8.55727 2.53871 8.56099C2.32048 8.56273 2.10267 8.54212 1.88864 8.4995C2.11503 9.18054 2.54804 9.7741 3.12743 10.1976C3.70683 10.6212 4.40386 10.8536 5.12148 10.8626C3.89014 11.8102 2.37947 12.323 0.825717 12.3209C0.544605 12.3209 0.272328 12.3209 0 12.3209C1.57742 13.3178 3.40484 13.8477 5.27086 13.8494C7.50907 13.8871 9.69087 13.1465 11.4437 11.7541C13.1965 10.3618 14.4116 8.40413 14.8814 6.21546C15.0377 5.54139 15.1173 4.85178 15.1186 4.15982C15.1186 4.01048 15.1186 3.86114 15.1186 3.72058C15.7963 3.2133 16.3741 2.58482 16.8228 1.86699V1.86699Z" fill="white"/>
</svg>
