<svg width="19" height="19" viewBox="0 0 19 19" fill="none" xmlns="http://www.w3.org/2000/svg">
<path d="M18.4258 8.09517L1.42576 0.095167C1.25458 0.0146173 1.06406 -0.0157201 0.876322 0.00767786C0.688587 0.0310758 0.511339 0.107249 0.365164 0.227352C0.218988 0.347455 0.109881 0.50656 0.0505117 0.686191C-0.00885731 0.865823 -0.0160522 1.05861 0.0297628 1.24217L1.24176 6.09117L8.99976 9.00017L1.24176 11.9092L0.0297628 16.7582C-0.0169142 16.9419 -0.0103198 17.135 0.0487745 17.3151C0.107869 17.4952 0.21702 17.6547 0.363459 17.7751C0.509899 17.8954 0.687572 17.9715 0.875696 17.9946C1.06382 18.0176 1.25461 17.9866 1.42576 17.9052L18.4258 9.90517C18.5976 9.82441 18.7428 9.69642 18.8446 9.53617C18.9463 9.37591 19.0004 9.19 19.0004 9.00017C19.0004 8.81034 18.9463 8.62443 18.8446 8.46417C18.7428 8.30391 18.5976 8.17592 18.4258 8.09517V8.09517Z" fill="#393E50" fill-opacity="0.4"/>
</svg>
